<svg xmlns="http://www.w3.org/2000/svg" viewBox="0 0 171.67 41.12"><defs><style>.cls-1{fill:#fa0;}.cls-2{fill:#f60;}</style></defs><title>Asset 1</title><g id="Layer_2" data-name="Layer 2"><g id="Layer_1-2" data-name="Layer 1"><path class="cls-1" d="M19.13,10.58c0,.8-1.1,5.26-1.63,7.34a.28.28,0,0,1-.54,0c-.52-2.08-1.62-6.54-1.62-7.34a1.9,1.9,0,1,1,3.79,0Z"/><path class="cls-1" d="M15.34,38.64c0-.8,1.1-5.26,1.62-7.34a.28.28,0,0,1,.54,0c.53,2.08,1.63,6.54,1.63,7.34a1.9,1.9,0,1,1-3.79,0Z"/><path class="cls-1" d="M32.57,26.51a29.1,29.1,0,0,1-5.14-1.64.28.28,0,0,1,0-.52,29.1,29.1,0,0,1,5.14-1.64,1.9,1.9,0,0,1,0,3.8Z"/><path class="cls-1" d="M1.9,22.71A29.36,29.36,0,0,1,7,24.35a.28.28,0,0,1,0,.52A29.36,29.36,0,0,1,1.9,26.51a1.9,1.9,0,0,1,0-3.8Z"/><path class="cls-2" d="M10.64,13c.32.46,1.48,3.46,2,4.86a.2.2,0,0,1-.31.22c-1.14-1-3.57-3.09-3.89-3.55A1.33,1.33,0,0,1,10.64,13Z"/><path class="cls-2" d="M23.83,36.21c-.32-.46-1.49-3.46-2-4.86a.2.2,0,0,1,.31-.22c1.14,1,3.56,3.09,3.88,3.55a1.33,1.33,0,0,1-2.17,1.53Z"/><path class="cls-2" d="M30.17,17.07a19.52,19.52,0,0,1-3.6,1.13.2.2,0,0,1-.21-.3,20,20,0,0,1,2.28-3,1.33,1.33,0,0,1,1.53,2.17Z"/><path class="cls-2" d="M4.3,32.15A19.52,19.52,0,0,1,7.9,31a.2.2,0,0,1,.21.3,20,20,0,0,1-2.28,3A1.33,1.33,0,1,1,4.3,32.15Z"/><path class="cls-2" d="M30,18.54c-.76.24-4.68,2.65-6.5,3.78a.28.28,0,0,0,.16.52c2.14-.14,6.73-.44,7.49-.68A1.9,1.9,0,0,0,30,18.54Z"/><path class="cls-2" d="M4.44,30.68c.76-.24,4.68-2.65,6.5-3.78a.28.28,0,0,0-.17-.52c-2.14.14-6.72.44-7.48.68a1.9,1.9,0,1,0,1.15,3.62Z"/><path class="cls-2" d="M10.77,10.58A28.45,28.45,0,0,0,13.89,15a.27.27,0,0,0,.49-.16,28.3,28.3,0,0,0,0-5.39,1.9,1.9,0,1,0-3.61,1.16Z"/><path class="cls-2" d="M23.7,38.64a29.15,29.15,0,0,0-3.12-4.39.28.28,0,0,0-.5.16,30.06,30.06,0,0,0,0,5.39,1.9,1.9,0,1,0,3.62-1.16Z"/><path class="cls-1" d="M26.82,14.74c-.41.54-3.46,3-4.89,4.13a.24.24,0,0,1-.36-.28c.71-1.68,2.27-5.26,2.68-5.8a1.61,1.61,0,0,1,2.57,2Z"/><path class="cls-1" d="M7.65,34.48c.41-.54,3.46-3,4.88-4.13a.24.24,0,0,1,.37.28c-.72,1.68-2.27,5.26-2.69,5.8a1.61,1.61,0,1,1-2.56-2Z"/><path class="cls-1" d="M28.27,35.09a24.27,24.27,0,0,1-2.63-3.76.24.24,0,0,1,.27-.35,25.1,25.1,0,0,1,4.32,1.54,1.62,1.62,0,0,1-2,2.57Z"/><path class="cls-1" d="M6.2,14.13a25.72,25.72,0,0,1,2.63,3.76.24.24,0,0,1-.27.35A24.8,24.8,0,0,1,4.24,16.7a1.62,1.62,0,0,1,2-2.57Z"/><path class="cls-2" d="M29.53,28c-.38-.13-2.67-.31-3.74-.39a.14.14,0,0,0-.09.26c.9.57,2.85,1.8,3.23,1.93a.95.95,0,0,0,.6-1.8Z"/><path class="cls-2" d="M4.94,21.24c.38.13,2.67.31,3.74.39a.14.14,0,0,0,.09-.26c-.91-.57-2.85-1.8-3.23-1.93a1,1,0,0,0-1.2.6A.94.94,0,0,0,4.94,21.24Z"/><path class="cls-2" d="M21.17,10.55a14.63,14.63,0,0,0,0,2.7.14.14,0,0,0,.25.08A15,15,0,0,0,23,11.15a.95.95,0,0,0-1.8-.6Z"/><path class="cls-2" d="M13.3,38.67a13.9,13.9,0,0,0,0-2.7.13.13,0,0,0-.24-.08,14.29,14.29,0,0,0-1.59,2.18.95.95,0,0,0,1.8.6Z"/><circle class="cls-1" cx="17.23" cy="24.61" r="3.42"/><path class="cls-2" d="M46.85,25.16c0,4.57,3,7.13,6.47,7.13A5.78,5.78,0,0,0,59.12,28l6,2c-1.13,4.21-5.08,8.52-11.81,8.52A13.08,13.08,0,0,1,40,25.16c0-7.81,5.75-13.4,13.1-13.4C60,11.76,63.9,16,65,20.28l-6.11,2a5.52,5.52,0,0,0-5.6-4.26C49.78,18.07,46.85,20.59,46.85,25.16Z"/><path class="cls-2" d="M73.55,0a4.21,4.21,0,1,1-4.21,4.26A4.21,4.21,0,0,1,73.55,0ZM70.16,37.79V12.53H77V37.79Z"/><path class="cls-2" d="M92.7,12.53h5.09v6.06H92.7V29.16c0,2.21,1,2.93,3,2.93a9.46,9.46,0,0,0,2.11-.21v5.65a10.06,10.06,0,0,1-3.85.62c-4.93,0-8-2.93-8-7.81V18.59H81.36V12.53h1.28c2.67,0,3.9-1.75,3.9-4V5H92.7Z"/><path class="cls-2" d="M118.63,19.31a9.89,9.89,0,0,0-2-.21c-3.49,0-6.52,1.69-6.52,7.14V37.79h-6.83V12.53h6.62v3.75c1.54-3.34,5-4,7.19-4a13.38,13.38,0,0,1,1.59.11Z"/><path class="cls-2" d="M139.73,35.07c-1.38,2.36-4.31,3.39-7,3.39-6.11,0-9.6-4.47-9.6-10v-16H130V27.11c0,2.82,1.44,5.08,4.62,5.08,3,0,4.77-2,4.77-5V12.53h6.83V33.22a42,42,0,0,0,.26,4.57h-6.52A17.54,17.54,0,0,1,139.73,35.07Z"/><path class="cls-2" d="M157.19,29.47c.16,2,1.65,3.85,4.62,3.85,2.26,0,3.34-1.18,3.34-2.51,0-1.13-.77-2.06-2.72-2.47l-3.34-.77c-4.88-1.08-7.08-4-7.08-7.55,0-4.51,4-8.26,9.44-8.26,7.19,0,9.61,4.57,9.91,7.29l-5.7,1.28a3.84,3.84,0,0,0-4.16-3.39c-1.79,0-3.23,1.08-3.23,2.52,0,1.23.93,2,2.31,2.26l3.6.77c5,1,7.49,4.05,7.49,7.75,0,4.11-3.18,8.32-9.81,8.32-7.59,0-10.21-4.93-10.52-7.81Z"/></g></g></svg>